<svg width="600" height="400" xmlns="http://www.w3.org/2000/svg">
  <!-- พื้นหลัง -->
  <rect width="600" height="400" fill="#f8f9fa"/>
  
  <!-- หัวข้อ -->
  <text x="300" y="40" font-family="Arial" font-weight="bold" font-size="20" fill="#333333" text-anchor="middle">Face Landmarks Detection (68 จุด)</text>
  
  <!-- กรอบใบหน้า -->
  <ellipse cx="300" cy="200" rx="150" ry="180" fill="#f0f0f0" stroke="#dddddd" stroke-width="2"/>
  
  <!-- ตาซ้าย -->
  <ellipse cx="250" cy="160" rx="30" ry="20" fill="#ffffff" stroke="#666666" stroke-width="1"/>
  <circle cx="250" cy="160" r="10" fill="#333333"/>
  
  <!-- ตาขวา -->
  <ellipse cx="350" cy="160" rx="30" ry="20" fill="#ffffff" stroke="#666666" stroke-width="1"/>
  <circle cx="350" cy="160" r="10" fill="#333333"/>
  
  <!-- จมูก -->
  <path d="M300,180 Q310,220 300,240 Q290,220 300,180" fill="#f0f0f0" stroke="#666666" stroke-width="1"/>
  
  <!-- ปาก -->
  <ellipse cx="300" cy="280" rx="50" ry="15" fill="#ffffff" stroke="#666666" stroke-width="1"/>
  <path d="M250,280 Q300,300 350,280" fill="none" stroke="#666666" stroke-width="1"/>
  
  <!-- คิ้วซ้าย -->
  <path d="M220,130 Q250,120 280,130" fill="none" stroke="#333333" stroke-width="2"/>
  
  <!-- คิ้วขวา -->
  <path d="M320,130 Q350,120 380,130" fill="none" stroke="#333333" stroke-width="2"/>
  
  <!-- จุดสำคัญบนใบหน้า -->
  <!-- คิ้ว -->
  <circle cx="220" cy="130" r="3" fill="#ff6b6b"/>
  <circle cx="235" cy="125" r="3" fill="#ff6b6b"/>
  <circle cx="250" cy="120" r="3" fill="#ff6b6b"/>
  <circle cx="265" cy="125" r="3" fill="#ff6b6b"/>
  <circle cx="280" cy="130" r="3" fill="#ff6b6b"/>
  
  <circle cx="320" cy="130" r="3" fill="#ff6b6b"/>
  <circle cx="335" cy="125" r="3" fill="#ff6b6b"/>
  <circle cx="350" cy="120" r="3" fill="#ff6b6b"/>
  <circle cx="365" cy="125" r="3" fill="#ff6b6b"/>
  <circle cx="380" cy="130" r="3" fill="#ff6b6b"/>
  
  <!-- ตาซ้าย -->
  <circle cx="220" cy="160" r="3" fill="#4ecdc4"/>
  <circle cx="235" cy="155" r="3" fill="#4ecdc4"/>
  <circle cx="250" cy="150" r="3" fill="#4ecdc4"/>
  <circle cx="265" cy="155" r="3" fill="#4ecdc4"/>
  <circle cx="280" cy="160" r="3" fill="#4ecdc4"/>
  <circle cx="265" cy="165" r="3" fill="#4ecdc4"/>
  <circle cx="250" cy="170" r="3" fill="#4ecdc4"/>
  <circle cx="235" cy="165" r="3" fill="#4ecdc4"/>
  
  <!-- ตาขวา -->
  <circle cx="320" cy="160" r="3" fill="#4ecdc4"/>
  <circle cx="335" cy="155" r="3" fill="#4ecdc4"/>
  <circle cx="350" cy="150" r="3" fill="#4ecdc4"/>
  <circle cx="365" cy="155" r="3" fill="#4ecdc4"/>
  <circle cx="380" cy="160" r="3" fill="#4ecdc4"/>
  <circle cx="365" cy="165" r="3" fill="#4ecdc4"/>
  <circle cx="350" cy="170" r="3" fill="#4ecdc4"/>
  <circle cx="335" cy="165" r="3" fill="#4ecdc4"/>
  
  <!-- จมูก -->
  <circle cx="300" cy="180" r="3" fill="#feca57"/>
  <circle cx="300" cy="200" r="3" fill="#feca57"/>
  <circle cx="300" cy="220" r="3" fill="#feca57"/>
  <circle cx="290" cy="230" r="3" fill="#feca57"/>
  <circle cx="300" cy="240" r="3" fill="#feca57"/>
  <circle cx="310" cy="230" r="3" fill="#feca57"/>
  <circle cx="300" cy="230" r="3" fill="#feca57"/>
  <circle cx="295" cy="235" r="3" fill="#feca57"/>
  <circle cx="305" cy="235" r="3" fill="#feca57"/>
  
  <!-- ปาก -->
  <circle cx="250" cy="280" r="3" fill="#ff6b6b"/>
  <circle cx="270" cy="285" r="3" fill="#ff6b6b"/>
  <circle cx="300" cy="290" r="3" fill="#ff6b6b"/>
  <circle cx="330" cy="285" r="3" fill="#ff6b6b"/>
  <circle cx="350" cy="280" r="3" fill="#ff6b6b"/>
  <circle cx="330" cy="275" r="3" fill="#ff6b6b"/>
  <circle cx="300" cy="270" r="3" fill="#ff6b6b"/>
  <circle cx="270" cy="275" r="3" fill="#ff6b6b"/>
  <circle cx="300" cy="280" r="3" fill="#ff6b6b"/>
  <circle cx="285" cy="280" r="3" fill="#ff6b6b"/>
  <circle cx="315" cy="280" r="3" fill="#ff6b6b"/>
  <circle cx="260" cy="280" r="3" fill="#ff6b6b"/>
  <circle cx="340" cy="280" r="3" fill="#ff6b6b"/>
  
  <!-- โครงหน้า -->
  <circle cx="200" cy="170" r="3" fill="#4ecdc4"/>
  <circle cx="190" cy="200" r="3" fill="#4ecdc4"/>
  <circle cx="185" cy="230" r="3" fill="#4ecdc4"/>
  <circle cx="190" cy="260" r="3" fill="#4ecdc4"/>
  <circle cx="200" cy="290" r="3" fill="#4ecdc4"/>
  <circle cx="220" cy="320" r="3" fill="#4ecdc4"/>
  <circle cx="250" cy="340" r="3" fill="#4ecdc4"/>
  <circle cx="300" cy="350" r="3" fill="#4ecdc4"/>
  <circle cx="350" cy="340" r="3" fill="#4ecdc4"/>
  <circle cx="380" cy="320" r="3" fill="#4ecdc4"/>
  <circle cx="400" cy="290" r="3" fill="#4ecdc4"/>
  <circle cx="410" cy="260" r="3" fill="#4ecdc4"/>
  <circle cx="415" cy="230" r="3" fill="#4ecdc4"/>
  <circle cx="410" cy="200" r="3" fill="#4ecdc4"/>
  <circle cx="400" cy="170" r="3" fill="#4ecdc4"/>
  <circle cx="380" cy="140" r="3" fill="#4ecdc4"/>
  <circle cx="350" cy="120" r="3" fill="#4ecdc4"/>
  
  <!-- คำอธิบาย -->
  <rect x="50" y="350" width="500" height="40" rx="5" fill="#ffffff" stroke="#dddddd" stroke-width="1"/>
  <circle cx="70" cy="365" r="3" fill="#ff6b6b"/>
  <text x="85" y="370" font-family="Arial" font-size="12" fill="#333333">คิ้ว/ปาก</text>
  
  <circle cx="150" cy="365" r="3" fill="#4ecdc4"/>
  <text x="165" y="370" font-family="Arial" font-size="12" fill="#333333">ตา/โครงหน้า</text>
  
  <circle cx="250" cy="365" r="3" fill="#feca57"/>
  <text x="265" y="370" font-family="Arial" font-size="12" fill="#333333">จมูก</text>
  
  <text x="350" y="370" font-family="Arial" font-size="12" fill="#666666">รวม 68 จุดสำคัญบนใบหน้า</text>
</svg> 